<?xml version="1.0" standalone="no"?>
<!DOCTYPE svg PUBLIC "-//W3C//DTD SVG 20010904//EN"
 "http://www.w3.org/TR/2001/REC-SVG-20010904/DTD/svg10.dtd">
<svg version="1.0" xmlns="http://www.w3.org/2000/svg"
 width="384.000000pt" height="384.000000pt" viewBox="0 0 384.000000 384.000000"
 preserveAspectRatio="xMidYMid meet">
<metadata>
Created by potrace 1.11, written by Peter Selinger 2001-2013
</metadata>
<g transform="translate(0.000000,384.000000) scale(0.100000,-0.100000)"
fill="#000000" stroke="none">
<path d="M509 3693 c-1 -4 -2 -33 -3 -63 -2 -55 -1 -55 61 -118 35 -34 64 -58
64 -52 1 5 2 37 3 70 0 32 7 65 14 72 30 30 1 75 -43 64 -18 -5 -25 -13 -25
-31 0 -13 5 -27 10 -30 6 -3 10 -23 10 -42 l0 -37 -30 29 c-24 23 -30 37 -32
83 -2 33 -8 57 -15 60 -7 2 -14 0 -14 -5z"/>
<path d="M700 3372 l0 -327 -60 -59 -60 -60 0 -322 0 -322 48 -38 c26 -21 63
-53 82 -71 28 -27 44 -33 80 -34 45 -1 524 0 548 1 6 0 12 7 12 15 0 13 -39
15 -291 15 l-291 0 -32 26 c-17 14 -52 44 -78 67 l-48 40 0 303 0 302 60 62
60 62 0 328 c0 282 -2 329 -15 334 -13 5 -15 -35 -15 -322z"/>
<path d="M906 3688 c-18 -10 -22 -53 -6 -63 12 -7 14 -285 3 -285 -5 1 -18 9
-30 19 -18 15 -23 30 -23 70 0 27 5 53 10 56 17 10 11 54 -8 64 -26 14 -62
-12 -57 -41 3 -12 8 -24 13 -27 4 -3 7 -32 7 -63 0 -57 0 -57 47 -93 41 -30
48 -40 48 -69 0 -28 7 -40 43 -67 23 -19 44 -37 47 -41 3 -3 5 -57 4 -118 l-1
-112 -70 -71 -70 -72 1 -270 1 -270 240 0 c202 0 240 2 240 14 0 13 -36 15
-225 15 l-225 1 0 250 0 250 73 73 72 73 0 127 0 127 -47 35 -47 35 -1 185
c-1 135 2 192 12 212 7 15 10 33 7 41 -7 19 -37 27 -58 15z"/>
<path d="M1134 3692 c-6 -4 -10 -47 -10 -101 l1 -94 -47 -36 -48 -35 0 -93 0
-92 45 -32 c25 -18 45 -37 46 -43 0 -6 2 -80 2 -164 l2 -153 -57 -57 -57 -57
-1 -167 c0 -107 -4 -168 -11 -170 -14 -5 -19 -40 -6 -55 29 -38 90 5 62 43
-11 15 -14 56 -15 174 l0 156 60 59 60 59 0 178 0 177 -44 30 c-24 17 -46 36
-48 43 -3 7 -4 44 -3 82 1 56 5 72 20 80 10 6 31 22 46 34 29 23 29 25 29 127
0 101 -5 121 -26 107z"/>
<path d="M1259 3692 c-13 -2 -15 -21 -14 -124 0 -76 -4 -130 -11 -144 -24 -45
16 -93 51 -64 17 14 20 51 5 66 -5 5 -11 68 -12 139 -3 112 -5 130 -19 127z"/>
<path d="M2586 3693 c-3 -4 -6 -64 -6 -134 0 -74 -4 -130 -10 -134 -14 -9 -12
-51 3 -63 17 -14 47 -9 56 9 9 18 8 29 -5 54 -6 11 -10 75 -9 142 0 86 -3 124
-11 127 -7 3 -15 2 -18 -1z"/>
<path d="M2706 3693 c-3 -4 -6 -52 -6 -108 l0 -102 47 -37 47 -36 0 -77 1 -77
-47 -34 -48 -34 0 -177 0 -177 60 -59 60 -59 0 -156 c-1 -118 -4 -159 -15
-174 -28 -38 33 -81 62 -43 13 15 8 50 -6 55 -7 2 -11 62 -11 171 l0 167 -58
57 -58 57 2 158 c1 86 2 160 3 163 0 3 21 20 46 38 l45 32 0 92 0 93 -48 35
-48 36 1 96 c1 66 -3 98 -11 101 -7 3 -15 2 -18 -1z"/>
<path d="M2905 3684 c-18 -18 -19 -36 -3 -52 14 -14 19 -367 6 -395 -5 -9 -27
-29 -48 -43 l-40 -27 0 -128 0 -129 73 -73 72 -73 -1 -244 c-1 -135 -2 -247
-3 -250 0 -3 -97 -5 -213 -5 -117 0 -219 -1 -225 -3 -7 -2 -13 -10 -13 -17 0
-9 55 -12 242 -11 l243 1 1 270 0 270 -71 75 -71 75 1 113 c1 61 4 113 6 115
78 57 89 70 89 101 0 27 9 40 48 74 47 39 49 43 48 89 -1 26 5 61 13 77 13 27
13 31 -8 48 -17 13 -27 15 -42 8 -20 -11 -26 -54 -9 -65 6 -3 10 -29 10 -56 0
-40 -5 -55 -22 -70 -13 -10 -26 -18 -30 -19 -13 0 -9 275 3 287 17 17 6 55
-18 64 -16 6 -27 3 -38 -7z"/>
<path d="M3143 3693 c-10 -4 -13 -79 -13 -333 l0 -328 60 -62 60 -62 0 -302 0
-303 -28 -24 c-15 -13 -50 -43 -78 -66 l-52 -43 -292 0 c-265 0 -291 -1 -288
-16 3 -15 31 -17 288 -16 157 0 292 1 300 2 8 0 33 17 56 38 22 20 59 52 82
71 l42 34 0 321 0 320 -57 59 -58 58 -5 328 c-4 256 -8 327 -17 324z"/>
<path d="M3326 3693 c-3 -4 -6 -30 -6 -58 0 -41 -5 -56 -23 -73 -31 -29 -37
-28 -37 8 0 17 5 30 10 30 6 0 10 13 10 30 0 23 -5 31 -25 36 -15 4 -32 1 -40
-6 -18 -15 -20 -49 -2 -56 9 -3 12 -24 11 -67 -1 -34 1 -67 5 -73 3 -7 30 13
66 50 58 60 60 64 61 118 1 38 -3 58 -11 62 -7 2 -16 2 -19 -1z m-76 -63 c0
-5 -2 -10 -4 -10 -3 0 -8 5 -11 10 -3 6 -1 10 4 10 6 0 11 -4 11 -10z"/>
<path d="M410 3591 c0 -59 0 -60 60 -120 l60 -61 0 -148 0 -149 -60 -59 -60
-59 0 -377 c0 -301 3 -379 13 -390 8 -7 42 -38 76 -68 35 -30 79 -69 99 -87
20 -18 43 -33 51 -34 21 0 661 0 684 0 9 1 17 9 17 19 0 16 -23 17 -352 17
l-351 -1 -101 91 -101 91 0 362 0 362 58 58 57 58 0 165 0 165 -57 57 c-52 52
-57 61 -58 104 -3 63 -3 63 -20 63 -12 0 -15 -13 -15 -59z"/>
<path d="M3419 3648 c0 -2 -2 -27 -4 -57 -3 -50 -7 -57 -59 -110 l-56 -57 0
-164 0 -164 57 -58 58 -58 0 -363 0 -362 -45 -40 c-24 -22 -58 -53 -75 -69
-84 -79 -50 -73 -434 -72 -272 1 -345 -2 -349 -12 -2 -7 -2 -15 1 -18 4 -5
502 -8 677 -4 24 0 46 10 67 29 18 16 65 57 104 92 39 35 75 66 80 67 5 2 9
175 9 385 l-1 382 -59 60 -60 60 0 148 0 148 60 60 c60 60 60 60 60 119 0 47
-3 60 -15 60 -8 0 -15 -1 -16 -2z"/>
<path d="M1331 3567 c-14 -14 -14 -54 -1 -62 6 -4 10 -141 10 -378 l0 -373
-58 -57 -58 -58 0 -107 1 -107 63 -2 c54 -1 63 1 60 15 -2 13 -14 17 -48 17
l-45 0 1 82 1 83 59 62 60 63 -1 375 c0 275 3 378 11 387 7 7 11 21 9 30 -2
10 -4 21 -4 24 -2 12 -50 16 -60 6z"/>
<path d="M2475 3564 c-18 -19 -18 -18 -2 -52 10 -21 13 -113 12 -397 l-1 -370
61 -65 61 -65 -1 -80 -1 -80 -44 0 c-34 0 -46 -5 -48 -17 -3 -14 6 -16 60 -15
l63 2 1 105 0 104 -58 60 -58 59 0 371 c0 254 3 375 11 383 17 17 6 55 -18 64
-16 6 -27 3 -38 -7z"/>
<path d="M428 3399 c-22 -12 -23 -28 -4 -63 16 -32 14 -139 -4 -160 -26 -33
13 -76 51 -56 22 13 24 31 5 68 -17 34 -14 130 5 160 24 38 -14 75 -53 51z"/>
<path d="M3380 3395 c-13 -15 -6 -65 8 -65 13 0 7 -122 -6 -147 -17 -31 -15
-51 7 -63 41 -22 74 20 48 62 -17 27 -15 144 2 161 15 15 14 33 -5 51 -19 20
-38 20 -54 1z"/>
<path d="M1150 3326 c0 -52 3 -64 21 -76 12 -8 34 -25 48 -36 l26 -22 0 -196
-1 -196 -59 -60 -60 -61 -1 -174 0 -175 113 0 c94 0 113 3 113 15 0 12 -17 15
-95 15 l-95 0 0 156 0 156 60 59 60 59 0 210 0 210 -50 37 c-49 36 -50 39 -50
88 0 39 -4 52 -15 52 -12 0 -15 -14 -15 -61z"/>
<path d="M2686 3383 c-3 -3 -6 -27 -6 -53 0 -43 -3 -48 -50 -83 l-50 -37 0
-211 0 -210 60 -60 60 -60 0 -154 0 -155 -95 0 c-76 0 -95 -3 -95 -14 0 -18
30 -22 140 -18 l86 3 -1 175 0 174 -61 62 -60 63 0 195 1 195 48 35 c46 35 47
36 47 92 0 53 -9 76 -24 61z"/>
<path d="M829 3129 c-19 -19 -19 -22 -5 -44 9 -14 16 -44 16 -67 0 -40 -5 -49
-60 -103 l-60 -59 0 -98 c0 -54 -4 -100 -10 -103 -5 -3 -10 -17 -10 -30 0 -18
7 -26 25 -31 44 -11 65 26 39 68 -5 7 -8 50 -9 95 l0 83 57 57 c57 56 58 58
58 114 0 37 5 61 14 68 24 20 5 70 -26 71 -5 0 -17 -9 -29 -21z"/>
<path d="M2981 3141 c-18 -11 -21 -48 -5 -62 9 -7 14 -31 14 -67 0 -54 2 -57
58 -116 l58 -61 -1 -80 c-1 -44 -6 -89 -12 -100 -18 -37 -4 -65 32 -65 18 0
26 7 31 26 4 14 2 30 -5 37 -6 6 -11 49 -11 105 l0 94 -60 61 c-55 56 -60 65
-60 105 0 23 7 53 15 66 13 19 13 25 1 41 -15 20 -37 27 -55 16z"/>
<path d="M716 2518 c-18 -10 -22 -53 -6 -63 6 -3 10 -21 10 -40 0 -19 -4 -37
-10 -40 -15 -9 -12 -51 5 -65 12 -10 21 -10 40 -2 25 11 27 30 7 69 -12 24 -8
68 7 87 27 33 -15 75 -53 54z"/>
<path d="M3113 2522 c-13 -2 -24 -8 -24 -13 -3 -23 -2 -36 8 -59 13 -31 11
-64 -5 -83 -15 -17 -12 -36 6 -56 20 -21 62 1 62 33 0 14 -4 28 -10 31 -5 3
-10 21 -10 40 0 19 5 37 10 40 14 9 12 51 -2 62 -7 5 -23 7 -35 5z"/>
<path d="M1467 2511 c-6 -2 -20 -13 -29 -25 -9 -11 -22 -22 -27 -22 -6 -1 -16
-2 -22 -3 -18 -2 -5 -45 16 -51 29 -7 29 -29 0 -40 -31 -12 -35 -50 -6 -50 11
0 22 -3 24 -7 6 -10 -7 -45 -16 -44 -23 3 -28 -1 -25 -21 2 -12 12 -25 23 -28
26 -7 29 -40 4 -40 -32 0 -36 -31 -6 -54 27 -22 25 -38 -5 -49 -24 -9 -23 -38
1 -44 28 -7 36 -34 12 -40 -36 -9 -37 -63 -2 -63 26 0 21 -27 -6 -39 -30 -14
-27 -45 4 -49 26 -4 20 -38 -9 -48 -23 -7 -21 -49 2 -49 8 0 18 -4 22 -9 8
-12 -2 -37 -12 -31 -12 8 -33 -23 -26 -40 3 -8 12 -15 20 -15 14 0 28 -34 18
-44 -3 -3 -14 -6 -24 -6 -26 0 -20 -43 6 -48 11 -2 27 -13 35 -24 16 -19 31
-19 491 -20 461 0 475 1 490 20 9 11 25 22 36 24 23 4 33 48 11 48 -19 0 -38
23 -29 36 4 6 15 13 25 17 23 9 22 38 -2 44 -31 8 -34 32 -6 45 30 13 33 44 6
53 -31 9 -34 34 -6 45 14 5 25 16 25 24 0 13 -29 44 -37 39 -1 -2 -3 -1 -3 2
0 3 0 9 0 14 0 5 9 13 20 16 26 8 26 45 1 52 -31 8 -34 32 -6 43 32 12 32 29
-2 56 l-28 22 28 13 c34 15 35 46 2 59 -14 5 -25 14 -25 20 0 6 11 15 25 20
15 6 25 17 25 30 0 18 -5 22 -27 19 -9 -1 -22 34 -16 44 2 4 13 7 24 7 29 0
25 38 -6 50 -28 11 -25 35 6 43 20 5 27 46 9 48 -5 1 -14 2 -19 3 -5 0 -18 12
-28 25 l-20 25 -462 0 c-253 1 -467 -1 -474 -3z m675 -283 c22 -15 22 -18 23
-214 0 -170 -2 -201 -17 -218 -15 -20 -27 -21 -213 -22 -172 -1 -200 2 -218
17 -20 16 -21 25 -22 215 0 260 -20 239 233 238 153 0 195 -4 214 -16z"/>
<path d="M1741 2146 c-9 -10 -1 -22 40 -57 l51 -43 -24 -21 c-13 -11 -36 -30
-52 -42 -25 -20 -26 -24 -13 -38 14 -13 19 -12 49 13 65 54 98 86 96 92 -3 8
-125 110 -131 110 -3 0 -10 -6 -16 -14z"/>
<path d="M1902 1882 c-8 -21 3 -24 105 -24 128 0 123 0 123 17 0 18 3 17 -124
19 -72 1 -100 -2 -104 -12z"/>
<path d="M583 1931 c-29 -27 -80 -72 -113 -101 l-60 -52 0 -377 0 -377 60 -59
60 -59 0 -161 0 -161 -60 -59 -60 -59 0 -169 c0 -155 1 -168 18 -165 15 3 17
19 18 153 1 83 2 155 3 162 0 6 26 36 56 66 l55 54 0 176 0 177 -55 55 c-30
31 -55 62 -56 68 -1 7 -2 170 -3 362 l-2 350 46 45 c113 111 151 140 183 141
18 0 177 1 355 0 312 0 322 1 322 20 0 18 -11 19 -357 19 l-358 0 -52 -49z"/>
<path d="M2510 1961 c0 -18 14 -19 343 -19 188 0 347 -1 354 -1 11 -1 36 -22
162 -138 l45 -42 2 -353 c1 -394 5 -370 -73 -445 l-43 -42 0 -176 0 -177 57
-56 57 -57 2 -155 c2 -183 0 -170 19 -170 13 0 15 25 15 168 l0 168 -60 59
-60 59 0 161 0 161 60 59 60 59 0 377 0 376 -114 101 -115 102 -355 0 c-342 0
-356 -1 -356 -19z"/>
<path d="M760 1878 c-10 -4 -28 -15 -38 -25 -11 -10 -47 -40 -80 -68 l-61 -50
0 -320 -1 -321 60 -59 60 -59 0 -423 c0 -369 2 -423 15 -423 13 0 15 55 15
431 l0 431 -60 59 -60 59 0 304 c0 252 2 306 14 313 8 4 29 22 48 38 18 17 48
42 66 57 l32 27 278 0 c152 0 283 0 290 0 8 1 12 9 10 18 -3 15 -29 17 -286
17 -156 1 -292 -2 -302 -6z"/>
<path d="M2527 1882 c-20 -4 -23 -32 -4 -32 6 -1 137 -1 290 -1 l277 -1 33
-26 c17 -15 37 -31 43 -37 6 -5 27 -23 47 -39 l37 -30 0 -302 0 -303 -60 -60
-60 -61 0 -430 c0 -376 2 -430 15 -430 13 0 15 54 15 423 l0 423 60 59 60 59
0 321 0 320 -73 60 c-39 33 -80 67 -89 74 -14 12 -68 15 -296 15 -153 1 -286
0 -295 -2z"/>
<path d="M869 1788 c-1 -2 -2 -115 -3 -252 l-2 -249 59 -61 60 -61 2 -135 c1
-74 -2 -145 -6 -156 -4 -12 -32 -54 -61 -94 l-53 -73 0 -246 c-1 -196 -4 -251
-15 -269 -19 -28 -3 -57 30 -57 35 0 48 28 29 62 -12 22 -15 55 -13 148 1 66
2 124 3 129 2 16 61 -73 61 -93 0 -10 -7 -31 -15 -47 -13 -25 -13 -30 2 -46
14 -16 45 -17 61 -3 10 9 8 46 -4 56 -8 6 -14 26 -14 44 0 29 -19 64 -57 103
-27 28 -37 59 -38 117 -2 76 3 88 67 177 l53 73 1 160 1 160 -61 62 -60 63 -1
225 0 225 70 1 c391 4 380 3 383 22 3 16 -13 17 -237 17 -133 0 -242 -1 -242
-2z"/>
<path d="M2510 1771 c0 -18 9 -19 225 -18 124 1 225 0 226 -3 1 -3 2 -114 3
-248 l1 -243 -60 -62 -61 -63 2 -175 c1 -95 2 -176 3 -179 1 -3 14 -19 29 -36
87 -101 89 -103 87 -166 -2 -41 -8 -55 -48 -102 -35 -40 -47 -62 -47 -87 0
-18 -7 -41 -16 -50 -15 -17 -15 -20 0 -44 20 -30 30 -31 57 -4 19 19 19 22 5
44 -24 36 -19 66 17 108 l32 37 -1 -130 c0 -90 -4 -137 -14 -155 -17 -32 -3
-60 30 -60 34 0 47 28 30 60 -11 21 -15 76 -15 244 l0 217 -45 55 c-25 30 -51
60 -57 67 -16 17 -15 1 -17 182 l-2 155 61 65 61 65 -1 270 0 270 -243 3
c-233 2 -242 2 -242 -17z"/>
<path d="M709 1724 c-10 -12 -10 -22 -1 -48 8 -21 12 -113 12 -271 l0 -238 60
-59 60 -60 0 -82 c0 -57 -5 -88 -15 -102 -18 -24 -18 -29 1 -48 39 -39 90 3
60 49 -12 17 -16 49 -16 111 l0 87 -58 61 -58 61 1 235 c0 129 5 242 10 250
15 25 13 51 -6 61 -25 13 -35 11 -50 -7z"/>
<path d="M3096 1724 c-19 -19 -19 -18 -3 -52 10 -20 13 -86 12 -260 l-1 -232
-57 -58 -57 -58 0 -90 c0 -49 -5 -95 -10 -100 -17 -17 -20 -52 -4 -64 35 -30
90 22 58 54 -10 10 -14 40 -14 99 l0 85 60 60 60 59 0 252 c0 161 4 251 10
251 14 0 13 43 -2 58 -16 16 -33 15 -52 -4z"/>
<path d="M991 1672 c-7 -13 -6 -26 5 -46 10 -22 14 -70 14 -198 l0 -170 49
-48 c27 -27 53 -57 58 -67 7 -14 10 -287 4 -324 -1 -4 -26 -41 -56 -84 -47
-64 -55 -83 -55 -120 0 -24 -6 -50 -13 -57 -16 -16 -18 -28 -6 -51 20 -36 83
-8 72 33 -3 11 -9 20 -14 20 -5 0 -9 19 -9 41 0 35 10 56 60 126 l60 83 0 173
0 173 -60 59 -60 59 0 169 c0 134 3 171 15 183 21 21 4 58 -28 62 -17 2 -29
-3 -36 -16z"/>
<path d="M1127 1683 c-2 -5 -3 -85 -3 -178 l1 -171 60 -61 60 -61 0 -198 -1
-199 -47 -81 -47 -81 0 -261 c0 -226 2 -262 15 -262 13 0 15 35 15 253 l0 252
50 89 50 89 0 206 0 207 -60 59 -60 60 2 155 3 155 70 2 c39 0 80 2 93 2 12 1
22 7 22 16 0 12 -19 15 -109 15 -61 0 -112 -3 -114 -7z"/>
<path d="M2510 1675 c0 -17 -1 -17 108 -17 l82 0 0 -157 0 -157 -60 -59 -60
-59 0 -221 0 -220 50 -74 50 -74 0 -253 c0 -219 2 -254 15 -254 13 0 15 36 15
260 l0 260 -47 72 -47 73 0 211 0 210 59 59 60 59 0 175 0 176 -112 3 c-96 2
-113 0 -113 -13z"/>
<path d="M2807 1675 c-15 -15 -12 -55 4 -55 5 0 9 -78 9 -173 l0 -173 -60 -59
-60 -59 0 -185 0 -184 37 -46 c21 -25 48 -57 60 -71 16 -18 23 -37 23 -67 0
-24 -4 -43 -9 -43 -15 0 -19 -36 -6 -53 16 -22 51 -22 63 -1 11 19 4 54 -9 54
-5 0 -9 22 -9 49 0 46 -4 55 -57 117 l-56 66 -1 177 0 177 57 55 57 54 0 173
c0 131 3 178 14 195 29 46 -19 90 -57 52z"/>
<path d="M1231 1590 c-4 -3 -7 -51 -7 -107 l1 -102 58 -58 57 -59 0 -247 c0
-158 -4 -247 -10 -247 -18 0 -11 -49 9 -60 41 -21 70 13 48 58 -10 20 -13 87
-12 267 l1 240 -60 59 -59 60 -1 80 -1 81 48 3 c36 2 47 7 47 20 0 14 -10 17
-56 17 -31 0 -59 -2 -63 -5z"/>
<path d="M2527 1592 c-9 -2 -17 -10 -17 -17 0 -9 15 -15 48 -17 l47 -3 0 -78
0 -78 -60 -62 -60 -62 0 -235 c0 -129 -4 -238 -8 -241 -15 -11 -15 -44 0 -61
12 -13 20 -15 39 -6 25 11 33 51 14 63 -6 4 -10 94 -10 238 l0 231 58 59 57
58 1 104 c0 58 -2 105 -5 106 -18 3 -90 4 -104 1z"/>
<path d="M415 881 c-3 -11 0 -31 7 -43 17 -32 18 -157 0 -185 -26 -41 11 -84
52 -61 19 11 21 51 3 66 -18 15 -16 154 2 175 7 9 11 26 9 39 -4 32 -63 39
-73 9z"/>
<path d="M3374 875 c-4 -16 -1 -32 8 -43 18 -21 18 -146 0 -179 -16 -30 -15
-50 4 -61 41 -23 78 20 52 61 -18 28 -17 153 1 185 18 34 5 62 -29 62 -23 0
-31 -5 -36 -25z"/>
<path d="M1234 628 c-12 -18 -12 -30 0 -53 6 -11 11 -108 12 -225 2 -240 0
-220 19 -220 13 0 15 31 15 215 0 154 4 221 12 235 10 15 10 25 2 38 -14 21
-49 28 -60 10z"/>
<path d="M2573 633 c-15 -6 -17 -49 -3 -58 6 -4 10 -90 10 -226 0 -205 1 -220
18 -217 15 3 17 21 17 213 1 147 5 217 13 233 23 40 -11 73 -55 55z"/>
<path d="M564 448 l-61 -63 2 -115 c3 -145 2 -140 20 -140 13 0 15 20 15 121
0 121 0 122 30 156 l30 34 0 -86 c0 -50 -4 -85 -10 -85 -15 0 -12 -46 5 -60
18 -15 52 -4 60 20 3 11 0 29 -8 42 -9 16 -13 56 -12 131 0 59 -2 107 -5 107
-3 0 -33 -28 -66 -62z"/>
<path d="M3225 403 c1 -60 -3 -117 -9 -128 -18 -34 -15 -56 11 -68 19 -8 27
-7 40 6 15 14 15 22 5 50 -12 33 -17 167 -7 167 3 0 17 -12 30 -27 23 -26 24
-35 25 -150 0 -112 2 -123 18 -123 17 0 18 11 18 130 l-1 129 -60 61 c-33 33
-62 60 -65 60 -3 0 -5 -48 -5 -107z"/>
</g>
</svg>
